HIERARCHY
ROOT Hips
{
    OFFSET 0.000000 0.000000 0.000000
    CHANNELS 6 Xposition Yposition Zposition Zrotation Xrotation Yrotation
    JOINT Spine
    {
        OFFSET -0.000000 7.305680 0.000000
        CHANNELS 3 Zrotation Xrotation Yrotation
        JOINT Spine1
        {
            OFFSET -0.000000 20.356600 0.000000
            CHANNELS 3 Zrotation Xrotation Yrotation
            JOINT Neck
            {
                OFFSET -0.000000 22.138500 0.000000
                CHANNELS 3 Zrotation Xrotation Yrotation
                JOINT Head
                {
                    OFFSET -0.000000 13.809501 1.781870
                    CHANNELS 3 Zrotation Xrotation Yrotation
                    End Site
                    {
                        OFFSET -0.000000 17.818779 0.000000
                    }
                }
            }
            JOINT LeftShoulder
            {
                OFFSET 3.599130 17.990000 0.023591
                CHANNELS 3 Zrotation Xrotation Yrotation
                JOINT LeftArm
                {
                    OFFSET 12.560999 0.000000 0.000000
                    CHANNELS 3 Zrotation Xrotation Yrotation
                    JOINT LeftForeArm
                    {
                        OFFSET 22.903299 0.000000 0.000000
                        CHANNELS 3 Zrotation Xrotation Yrotation
                        JOINT LeftHand
                        {
                            OFFSET 21.865299 0.000000 0.000000
                            CHANNELS 3 Zrotation Xrotation Yrotation
                            JOINT LeftHandThumb1
                            {
                                OFFSET 1.853710 -2.106480 2.949080
                                CHANNELS 3 Zrotation Xrotation Yrotation
                                JOINT LeftHandThumb2
                                {
                                    OFFSET 2.049150 0.000000 1.336400
                                    CHANNELS 3 Zrotation Xrotation Yrotation
                                    JOINT LeftHandThumb3
                                    {
                                        OFFSET 2.672810 0.000000 0.000000
                                        CHANNELS 3 Zrotation Xrotation Yrotation
                                        End Site
                                        {
                                            OFFSET 2.381310 0.000000 0.000000
                                        }
                                    }
                                }
                            }
                            JOINT LeftHandIndex1
                            {
                                OFFSET 7.583340 0.000000 2.949080
                                CHANNELS 3 Zrotation Xrotation Yrotation
                                JOINT LeftHandIndex2
                                {
                                    OFFSET 4.454680 0.000000 0.000000
                                    CHANNELS 3 Zrotation Xrotation Yrotation
                                    JOINT LeftHandIndex3
                                    {
                                        OFFSET 2.227340 0.000000 0.000000
                                        CHANNELS 3 Zrotation Xrotation Yrotation
                                        End Site
                                        {
                                            OFFSET 1.984424 0.000000 0.000000
                                        }
                                    }
                                }
                            }
                            JOINT LeftHandMiddle1
                            {
                                OFFSET 7.583340 0.000000 0.977409
                                CHANNELS 3 Zrotation Xrotation Yrotation
                                JOINT LeftHandMiddle2
                                {
                                    OFFSET 4.900150 0.000000 0.000000
                                    CHANNELS 3 Zrotation Xrotation Yrotation
                                    JOINT LeftHandMiddle3
                                    {
                                        OFFSET 2.672810 0.000000 0.000000
                                        CHANNELS 3 Zrotation Xrotation Yrotation
                                        End Site
                                        {
                                            OFFSET 2.381310 0.000000 0.000000
                                        }
                                    }
                                }
                            }
                            JOINT LeftHandRing1
                            {
                                OFFSET 7.162050 0.000000 -0.977409
                                CHANNELS 3 Zrotation Xrotation Yrotation
                                JOINT LeftHandRing2
                                {
                                    OFFSET 4.454680 0.000000 0.000000
                                    CHANNELS 3 Zrotation Xrotation Yrotation
                                    JOINT LeftHandRing3
                                    {
                                        OFFSET 2.227340 0.000000 0.000000
                                        CHANNELS 3 Zrotation Xrotation Yrotation
                                        End Site
                                        {
                                            OFFSET 1.984424 0.000000 0.000000
                                        }
                                    }
                                }
                            }
                            JOINT LeftHandPinky1
                            {
                                OFFSET 6.740750 0.000000 -2.949080
                                CHANNELS 3 Zrotation Xrotation Yrotation
                                JOINT LeftHandPinky2
                                {
                                    OFFSET 3.563750 0.000000 0.000000
                                    CHANNELS 3 Zrotation Xrotation Yrotation
                                    JOINT LeftHandPinky3
                                    {
                                        OFFSET 1.781870 0.000000 0.000000
                                        CHANNELS 3 Zrotation Xrotation Yrotation
                                        End Site
                                        {
                                            OFFSET 1.587538 0.000000 0.000000
                                        }
                                    }
                                }
                            }
                        }
                    }
                }
            }
            JOINT RightShoulder
            {
                OFFSET -3.506990 17.990000 0.023591
                CHANNELS 3 Zrotation Xrotation Yrotation
                JOINT RightArm
                {
                    OFFSET -12.560999 0.000000 0.000000
                    CHANNELS 3 Zrotation Xrotation Yrotation
                    JOINT RightForeArm
                    {
                        OFFSET -22.903299 0.000000 0.000000
                        CHANNELS 3 Zrotation Xrotation Yrotation
                        JOINT RightHand
                        {
                            OFFSET -21.865299 0.000000 0.000000
                            CHANNELS 3 Zrotation Xrotation Yrotation
                            JOINT RightHandThumb1
                            {
                                OFFSET -1.853710 -2.106480 2.949080
                                CHANNELS 3 Zrotation Xrotation Yrotation
                                JOINT RightHandThumb2
                                {
                                    OFFSET -2.049150 0.000000 1.336400
                                    CHANNELS 3 Zrotation Xrotation Yrotation
                                    JOINT RightHandThumb3
                                    {
                                        OFFSET -2.672810 0.000000 0.000000
                                        CHANNELS 3 Zrotation Xrotation Yrotation
                                        End Site
                                        {
                                            OFFSET -2.381310 0.000000 0.000000
                                        }
                                    }
                                }
                            }
                            JOINT RightHandIndex1
                            {
                                OFFSET -7.583340 0.000000 2.949080
                                CHANNELS 3 Zrotation Xrotation Yrotation
                                JOINT RightHandIndex2
                                {
                                    OFFSET -4.454680 0.000000 0.000000
                                    CHANNELS 3 Zrotation Xrotation Yrotation
                                    JOINT RightHandIndex3
                                    {
                                        OFFSET -2.227340 0.000000 0.000000
                                        CHANNELS 3 Zrotation Xrotation Yrotation
                                        End Site
                                        {
                                            OFFSET -1.984424 0.000000 0.000000
                                        }
                                    }
                                }
                            }
                            JOINT RightHandMiddle1
                            {
                                OFFSET -7.583340 0.000000 0.977409
                                CHANNELS 3 Zrotation Xrotation Yrotation
                                JOINT RightHandMiddle2
                                {
                                    OFFSET -4.900150 0.000000 0.000000
                                    CHANNELS 3 Zrotation Xrotation Yrotation
                                    JOINT RightHandMiddle3
                                    {
                                        OFFSET -2.672810 0.000000 0.000000
                                        CHANNELS 3 Zrotation Xrotation Yrotation
                                        End Site
                                        {
                                            OFFSET -2.381310 0.000000 0.000000
                                        }
                                    }
                                }
                            }
                            JOINT RightHandRing1
                            {
                                OFFSET -7.162050 0.000000 -0.977409
                                CHANNELS 3 Zrotation Xrotation Yrotation
                                JOINT RightHandRing2
                                {
                                    OFFSET -4.454680 0.000000 0.000000
                                    CHANNELS 3 Zrotation Xrotation Yrotation
                                    JOINT RightHandRing3
                                    {
                                        OFFSET -2.227340 0.000000 0.000000
                                        CHANNELS 3 Zrotation Xrotation Yrotation
                                        End Site
                                        {
                                            OFFSET -1.984424 0.000000 0.000000
                                        }
                                    }
                                }
                            }
                            JOINT RightHandPinky1
                            {
                                OFFSET -6.740750 0.000000 -2.949080
                                CHANNELS 3 Zrotation Xrotation Yrotation
                                JOINT RightHandPinky2
                                {
                                    OFFSET -3.563750 0.000000 0.000000
                                    CHANNELS 3 Zrotation Xrotation Yrotation
                                    JOINT RightHandPinky3
                                    {
                                        OFFSET -1.781870 0.000000 0.000000
                                        CHANNELS 3 Zrotation Xrotation Yrotation
                                        End Site
                                        {
                                            OFFSET -1.587538 0.000000 0.000000
                                        }
                                    }
                                }
                            }
                        }
                    }
                }
            }
        }
    }
    JOINT LeftUpLeg
    {
        OFFSET 8.909360 0.000000 0.000000
        CHANNELS 3 Zrotation Xrotation Yrotation
        JOINT LeftLeg
        {
            OFFSET -0.000000 -38.765602 0.000000
            CHANNELS 3 Zrotation Xrotation Yrotation
            JOINT LeftFoot
            {
                OFFSET -0.000000 -35.245003 0.000000
                CHANNELS 3 Zrotation Xrotation Yrotation
                JOINT LeftToeBase
                {
                    OFFSET -0.000000 -5.791090 13.364000
                    CHANNELS 3 Zrotation Xrotation Yrotation
                    End Site
                    {
                        OFFSET -0.000000 0.000000 3.563756
                    }
                }
            }
        }
    }
    JOINT RightUpLeg
    {
        OFFSET -8.909360 0.000000 0.000000
        CHANNELS 3 Zrotation Xrotation Yrotation
        JOINT RightLeg
        {
            OFFSET -0.000000 -38.765602 0.000000
            CHANNELS 3 Zrotation Xrotation Yrotation
            JOINT RightFoot
            {
                OFFSET -0.000000 -35.245003 0.000000
                CHANNELS 3 Zrotation Xrotation Yrotation
                JOINT RightToeBase
                {
                    OFFSET -0.000000 -5.791090 13.364000
                    CHANNELS 3 Zrotation Xrotation Yrotation
                    End Site
                    {
                        OFFSET -0.000000 0.000000 3.563756
                    }
                }
            }
        }
    }
}
MOTION
Frames:    4
Frame Time:    0.033333
4.136662    81.499306    103.755440    0.281525    0.734769    6.227868    -0.398724    -2.554695    -1.617430    -1.472860    3.724091    -0.488471    2.499467    -2.092207    0.887111    1.093231    -1.158021    1.073357    0.708928    4.779425    -9.471717    -87.142097    24.924341    -0.155212    11.001630    -0.567724    1.185598    -1.871320    -29.656284    10.512153    1.190751    -1.350298    -0.111249    -0.000000    0.000000    0.094431    -0.000000    0.000000    0.188862    -21.321417    3.892107    -9.865393    -43.314903    0.000000    0.000000    -21.657455    0.000000    0.000000    -31.807270    0.828856    -3.751018    -63.643314    0.000000    0.000000    -31.821655    0.000000    0.000000    -41.924046    -3.277871    1.713218    -83.971725    0.000000    0.000000    -41.985855    0.000000    0.000000    -51.975708    -8.428903    6.538852    -104.916138    0.000000    0.000000    -52.458069    0.000000    0.000000    -4.788517    -0.799058    0.319857    102.365379    49.564304    -13.847115    -11.989505    -32.884327    0.497603    9.306961    -43.289310    -3.812917    0.877421    -2.384555    4.333869    0.000000    0.000000    0.000000    0.000000    0.000000    0.000000    13.036883    0.000000    -0.000000    26.073771    0.000000    -0.000000    13.036883    0.000000    -0.000000    20.940577    -1.432728    -2.580736    41.974251    0.000000    -0.000000    20.987133    0.000000    -0.000000    28.780945    -3.205408    -4.942664    57.874752    0.000000    -0.000000    28.937376    0.000000    -0.000000    36.796173    -5.349623    -7.104951    74.257072    0.000000    -0.000000    37.128532    0.000000    -0.000000    0.256264    2.440768    -5.439875    0.358081    -6.027668    18.626070    -2.903023    4.010221    -21.661188    0.423854    -3.743311    -1.619219    -0.028935    1.897409    6.817003    -0.189350    -2.656386    -14.701176    0.712819    -1.664564    2.853904    -0.300733    -1.616943    0.312667    
4.126247    81.491539    103.870567    0.327897    0.518196    6.238622    -0.504129    -3.029612    -1.848935    -1.347355    3.904476    -0.566140    2.112553    0.450985    0.586908    1.014833    0.550133    0.760815    0.506157    4.690773    -9.081385    -87.022728    24.920835    -0.251428    10.868130    -0.359140    1.511678    -1.622488    -29.547094    10.686845    1.094101    -1.340509    -0.217558    -0.000000    0.000000    0.018498    -0.000000    0.000000    0.036996    -21.439375    3.886975    -9.794245    -43.545074    0.000000    0.000000    -21.772533    0.000000    0.000000    -31.977873    0.819615    -3.718265    -63.983982    0.000000    0.000000    -31.991995    0.000000    0.000000    -42.149563    -3.289378    1.703683    -84.422905    0.000000    0.000000    -42.211460    0.000000    0.000000    -52.261909    -8.439852    6.480649    -105.481194    0.000000    0.000000    -52.740597    0.000000    0.000000    -4.692320    -0.906677    0.022390    102.034966    49.643269    -13.694018    -12.065394    -32.546108    0.417403    9.026379    -43.044392    -4.256753    0.979203    -2.384054    4.406772    0.000000    0.000000    0.000000    0.000000    0.000000    0.000000    13.103558    0.000000    -0.000000    26.207119    0.000000    -0.000000    13.103558    0.000000    -0.000000    20.956978    -1.408743    -2.541406    42.003952    0.000000    -0.000000    21.001976    0.000000    -0.000000    28.749037    -3.150277    -4.869075    57.800785    0.000000    -0.000000    28.900394    0.000000    -0.000000    36.716339    -5.256070    -7.002411    74.076294    0.000000    -0.000000    37.038155    0.000000    -0.000000    0.257285    2.715646    -5.442547    0.340626    -5.970016    18.682785    -2.919218    3.924873    -21.737364    0.420945    -3.686073    -1.602041    -0.037473    2.219184    6.815486    -0.186643    -2.690626    -14.799484    0.753375    -1.708793    2.958632    -0.292812    -1.661284    0.295541    
4.108971    81.475288    103.979996    0.371956    0.215318    6.227659    -0.586582    -3.428387    -1.972089    -1.256677    4.286139    -0.604527    1.587806    2.968771    0.281812    1.465182    0.796258    0.345589    0.380027    4.670493    -8.641615    -86.816032    24.912008    -0.469817    10.889468    0.352750    1.466192    -1.608709    -29.415424    10.560097    1.074829    -1.284250    -0.176719    -0.000000    0.000000    0.053928    -0.000000    0.000000    0.107856    -21.991278    4.098450    -10.035901    -44.702583    0.000000    0.000000    -22.351292    0.000000    0.000000    -32.333076    0.827058    -3.734258    -64.696709    0.000000    0.000000    -32.348354    0.000000    0.000000    -42.272259    -3.502066    1.888862    -84.690811    0.000000    0.000000    -42.345413    0.000000    0.000000    -52.111671    -8.890516    6.857510    -105.290802    0.000000    0.000000    -52.645405    0.000000    0.000000    -4.593447    -0.784813    -0.302030    101.648232    49.850727    -13.406279    -12.207758    -32.303974    0.662947    8.628448    -42.766857    -4.868498    1.131503    -2.456203    4.630040    0.000000    0.000000    0.000000    0.000000    0.000000    0.000000    13.318146    0.000000    -0.000000    26.636292    0.000000    -0.000000    13.318146    0.000000    -0.000000    21.145035    -1.352156    -2.423837    42.372257    0.000000    -0.000000    21.186131    0.000000    -0.000000    28.915829    -3.020702    -4.643228    58.108231    0.000000    -0.000000    29.054115    0.000000    -0.000000    36.866589    -5.036078    -6.676551    74.321053    0.000000    -0.000000    37.160526    0.000000    -0.000000    0.278587    3.014091    -5.442067    0.299522    -5.785058    18.681292    -2.942230    3.769945    -21.739159    0.408058    -3.698774    -1.569880    -0.027105    2.628977    6.709937    -0.185256    -2.745757    -14.876347    0.734132    -1.732028    3.155687    -0.289377    -1.641344    0.292090    
4.083474    81.439049    104.053757    0.437647    -0.226213    6.161770    -0.662815    -3.516205    -2.020250    -1.270960    5.066982    -0.610289    1.495906    4.020093    -0.049343    1.620809    -0.145326    -0.005492    0.180868    4.694889    -8.160284    -86.469780    24.597538    -0.739875    11.312928    0.859018    0.927625    -1.618009    -29.086727    10.299531    1.126314    -1.328046    -0.164145    -0.000000    0.000000    0.041189    -0.000000    0.000000    0.082379    -22.497717    4.544431    -10.830111    -45.857445    0.000000    0.000000    -22.928722    0.000000    0.000000    -32.691811    1.219858    -4.319794    -65.437790    0.000000    0.000000    -32.718895    0.000000    0.000000    -42.458134    -3.181695    1.508654    -85.018127    0.000000    0.000000    -42.509064    0.000000    0.000000    -52.088581    -8.663025    6.690501    -105.191826    0.000000    0.000000    -52.595913    0.000000    0.000000    -4.310544    -0.659131    -0.716462    100.972733    49.455128    -12.861034    -12.510680    -31.716520    1.078321    8.670525    -42.381962    -4.329685    1.025021    -2.489480    4.604273    0.000000    0.000000    0.000000    0.000000    0.000000    0.000000    13.411402    0.000000    -0.000000    26.822803    0.000000    -0.000000    13.411402    0.000000    -0.000000    21.262150    -1.379168    -2.457767    42.609322    0.000000    -0.000000    21.304661    0.000000    -0.000000    29.054977    -3.079981    -4.706502    58.395844    0.000000    -0.000000    29.197922    0.000000    -0.000000    37.026791    -5.133181    -6.764630    74.660728    0.000000    -0.000000    37.330368    0.000000    -0.000000    0.303408    3.482730    -5.414855    0.251834    -5.706461    18.590952    -2.941864    3.687340    -21.629421    0.401277    -3.698983    -1.551889    -0.031056    3.151118    6.560680    -0.158737    -2.813601    -14.920091    0.705291    -1.831196    3.395492    -0.289756    -1.578484    0.299072    
